<svg xmlns="http://www.w3.org/2000/svg">
    <symbol id="linkedin" viewBox="0 0 32 32" fill="none">
    <path d="M29.7143 0H2.27857C1.02143 0 0 1.03571 0 2.30714V29.6929C0 30.9643 1.02143 32 2.27857 32H29.7143C30.9714 32 32 30.9643 32 29.6929V2.30714C32 1.03571 30.9714 0 29.7143 0ZM9.67143 27.4286H4.92857V12.1571H9.67857V27.4286H9.67143ZM7.3 10.0714C5.77857 10.0714 4.55 8.83571 4.55 7.32143C4.55 5.80714 5.77857 4.57143 7.3 4.57143C8.81429 4.57143 10.05 5.80714 10.05 7.32143C10.05 8.84286 8.82143 10.0714 7.3 10.0714ZM27.45 27.4286H22.7071V20C22.7071 18.2286 22.6714 15.95 20.2429 15.95C17.7714 15.95 17.3929 17.8786 17.3929 19.8714V27.4286H12.65V12.1571H17.2V14.2429H17.2643C17.9 13.0429 19.45 11.7786 21.7571 11.7786C26.5571 11.7786 27.45 14.9429 27.45 19.0571V27.4286Z" fill="#EFEBEA"/>
    </symbol>
    <symbol id="facebook" viewBox="0 0 33 33" fill="none">
    <path d="M30.74 0H1.28083C0.572375 0 3.8147e-06 0.572371 3.8147e-06 1.28083V30.7399C3.8147e-06 31.4484 0.572375 32.0208 1.28083 32.0208H30.74C31.4484 32.0208 32.0208 31.4484 32.0208 30.7399V1.28083C32.0208 0.572371 31.4484 0 30.74 0ZM27.0415 9.34606H24.4839C22.4786 9.34606 22.0903 10.2987 22.0903 11.6996V14.7856H26.8774L26.253 19.6167H22.0903V32.0208H17.0991V19.6207H12.9244V14.7856H17.0991V11.2233C17.0991 7.0886 19.6247 4.83514 23.3151 4.83514C25.0843 4.83514 26.6013 4.96722 27.0456 5.02726V9.34606H27.0415Z" fill="#EFEBEA"/>
    </symbol>
    <symbol id="instagram" viewBox="0 0 32 32" fill="none" >
    <path d="M16.0036 7.7956C11.4632 7.7956 7.801 11.4587 7.801 16C7.801 20.5413 11.4632 24.2044 16.0036 24.2044C20.5439 24.2044 24.2061 20.5413 24.2061 16C24.2061 11.4587 20.5439 7.7956 16.0036 7.7956ZM16.0036 21.3339C13.0695 21.3339 10.6708 18.9419 10.6708 16C10.6708 13.0581 13.0624 10.6661 16.0036 10.6661C18.9448 10.6661 21.3363 13.0581 21.3363 16C21.3363 18.9419 18.9376 21.3339 16.0036 21.3339V21.3339ZM26.4549 7.46C26.4549 8.52393 25.5982 9.37365 24.5417 9.37365C23.478 9.37365 22.6284 8.51679 22.6284 7.46C22.6284 6.40321 23.4851 5.54636 24.5417 5.54636C25.5982 5.54636 26.4549 6.40321 26.4549 7.46ZM31.8876 9.40221C31.7662 6.83878 31.1808 4.56811 29.3033 2.69731C27.4329 0.826509 25.1627 0.240991 22.5999 0.112462C19.9585 -0.0374874 12.0415 -0.0374874 9.40011 0.112462C6.8444 0.23385 4.57423 0.819368 2.69671 2.69017C0.819186 4.56097 0.240937 6.83164 0.112437 9.39507C-0.0374791 12.037 -0.0374791 19.9558 0.112437 22.5978C0.233798 25.1612 0.819186 27.4319 2.69671 29.3027C4.57423 31.1735 6.83726 31.759 9.40011 31.8875C12.0415 32.0375 19.9585 32.0375 22.5999 31.8875C25.1627 31.7661 27.4329 31.1806 29.3033 29.3027C31.1737 27.4319 31.7591 25.1612 31.8876 22.5978C32.0375 19.9558 32.0375 12.0442 31.8876 9.40221V9.40221ZM28.4752 25.4326C27.9184 26.8321 26.8404 27.9103 25.434 28.4744C23.3281 29.3098 18.3308 29.117 16.0036 29.117C13.6763 29.117 8.67195 29.3027 6.57312 28.4744C5.1739 27.9174 4.09593 26.8392 3.53196 25.4326C2.69671 23.3261 2.88946 18.3278 2.88946 16C2.88946 13.6722 2.70385 8.66674 3.53196 6.56744C4.08879 5.16791 5.16676 4.0897 6.57312 3.52561C8.67909 2.69017 13.6763 2.88296 16.0036 2.88296C18.3308 2.88296 23.3352 2.69731 25.434 3.52561C26.8332 4.08256 27.9112 5.16077 28.4752 6.56744C29.3104 8.67388 29.1177 13.6722 29.1177 16C29.1177 18.3278 29.3104 23.3333 28.4752 25.4326Z" fill="white"/>
    </symbol>
</svg>
